STARTFONT 2.1
COMMENT 
COMMENT This file has been produced by ttf2bdf written by Subhabrata Biswas
COMMENT 
COMMENT For comments, questions, bug reports, send a mail to
COMMENT                                           subhabrata.biswas@usa.net
COMMENT 
FONT -*-Modern National Rail PIS Small-Medium-R-Normal--37-280-96-96-c-17--fontspecific
SIZE 28 96 96
FONTBOUNDINGBOX 18 37 0 -7
STARTPROPERTIES 15
FOUNDRY "Misc"
FAMILY_NAME "Modern National Rail PIS Small"
WEIGHT_NAME "Medium"
SLANT "R"
SETWIDTH_NAME "Normal"
PIXEL_SIZE 11
POINT_SIZE 280
RESOLUTION_X 96
RESOLUTION_Y 96
SPACING "C"
CHARSET_ENCODING "fontspecific"
FONT_ASCENT 24
FONT_DESCENT 13
DEFAULT_CHAR 31
COPYRIGHT "You may wish to put your copyright here"
ENDPROPERTIES
CHARS 226
STARTCHAR C0030
ENCODING 30
SWIDTH 562 0
DWIDTH 21 0
BBX 18 24 0 0
BITMAP
FFFFC0
800040
C000C0
A00140
900040
800040
880440
840840
820040
800040
812040
80C040
804040
800040
812040
821040
800840
800040
880440
900240
800140
800040
C000C0
FFFFC0
ENDCHAR
STARTCHAR C0031
ENCODING 31
SWIDTH 562 0
DWIDTH 21 0
BBX 18 24 0 0
BITMAP
FFFFC0
800040
C000C0
A00140
900040
800040
880440
840840
820040
800040
812040
80C040
804040
800040
812040
821040
800840
800040
880440
900240
800140
800040
C000C0
FFFFC0
ENDCHAR
STARTCHAR C0032- 
ENCODING 32
SWIDTH 348 0
DWIDTH 13 0
BBX 1 1 0 -1
BITMAP
00
ENDCHAR
STARTCHAR C0033-!
ENCODING 33
SWIDTH 187 0
DWIDTH 7 0
BBX 3 24 0 0
BITMAP
40
E0
E0
60
E0
E0
E0
60
E0
E0
40
E0
E0
60
E0
E0
E0
00
00
00
00
E0
E0
E0
ENDCHAR
STARTCHAR C0034-"
ENCODING 34
SWIDTH 348 0
DWIDTH 13 0
BBX 10 11 0 13
BITMAP
4080
E1C0
E1C0
6180
E1C0
E1C0
E1C0
6180
E1C0
E1C0
4080
ENDCHAR
STARTCHAR C0035-#
ENCODING 35
SWIDTH 535 0
DWIDTH 20 0
BBX 17 24 0 0
BITMAP
001000
1E3800
1E3800
0C1800
0C3800
1E3800
0C3800
6D9B00
FFFF80
FFFB80
449100
0E3800
1E3800
0C1800
EDFB00
FFFF80
EDFB80
0C1800
1E3800
1E3800
0C1000
0E3800
1E3800
0C1800
ENDCHAR
STARTCHAR C0036-$
ENCODING 36
SWIDTH 562 0
DWIDTH 21 0
BBX 18 24 0 0
BITMAP
FFFFC0
800040
C000C0
A00140
900040
800040
880440
840840
820040
800040
812040
80C040
804040
800040
812040
821040
800840
800040
880440
900240
800140
800040
C000C0
FFFFC0
ENDCHAR
STARTCHAR C0037-%
ENCODING 37
SWIDTH 535 0
DWIDTH 20 0
BBX 17 24 0 0
BITMAP
000100
1E0380
1E0780
0C0300
E1C300
E1C780
E1C300
0C1800
1E3800
1E3800
041000
01C000
01C000
01C000
0C3800
1E3800
0C3800
608300
E1C780
E1C380
408300
E03800
E03800
E01800
ENDCHAR
STARTCHAR C0038-&
ENCODING 38
SWIDTH 535 0
DWIDTH 20 0
BBX 17 24 0 0
BITMAP
000000
1E0000
1E0000
0C0000
E1C000
E1C000
E1C000
618000
E1C000
E1C000
408000
0E0000
1E0000
0C0000
E1C300
E1C780
E1C380
601800
E03800
E03800
401000
0FC380
1FC780
0DC300
ENDCHAR
STARTCHAR C0039-'
ENCODING 39
SWIDTH 267 0
DWIDTH 10 0
BBX 7 11 0 13
BITMAP
00
1E
1E
0C
0C
1E
0C
60
E0
E0
40
ENDCHAR
STARTCHAR C0040-(
ENCODING 40
SWIDTH 348 0
DWIDTH 13 0
BBX 10 24 0 0
BITMAP
0080
01C0
01C0
0180
0C00
1E00
0C00
6000
E000
E000
4000
E000
E000
6000
E000
E000
E000
0C00
1E00
1E00
0C00
01C0
01C0
01C0
ENDCHAR
STARTCHAR C0041-)
ENCODING 41
SWIDTH 348 0
DWIDTH 13 0
BBX 10 24 0 0
BITMAP
4000
E000
E000
6000
0C00
1E00
0C00
0180
01C0
01C0
0080
01C0
01C0
01C0
01C0
01C0
01C0
0C00
1E00
1E00
0C00
E000
E000
E000
ENDCHAR
STARTCHAR C0042-*
ENCODING 42
SWIDTH 535 0
DWIDTH 20 0
BBX 17 24 0 0
BITMAP
008000
01C000
01C000
018000
E1C300
E1C780
E1C300
0D9800
1FF800
1FF800
049000
EFFB80
FFFF80
6DDB00
0DF800
1FF800
0DF800
608300
E1C780
E1C380
408300
01C000
01C000
01C000
ENDCHAR
STARTCHAR C0043-+
ENCODING 43
SWIDTH 535 0
DWIDTH 20 0
BBX 17 17 0 3
BITMAP
01C000
01C000
01C000
018000
01C000
01C000
008000
EFFB80
FFFF80
6DDB00
01C000
01C000
01C000
008000
01C000
01C000
008000
ENDCHAR
STARTCHAR C0044-,
ENCODING 44
SWIDTH 267 0
DWIDTH 10 0
BBX 7 14 0 -7
BITMAP
0C
1E
1E
0C
0E
1E
0C
0C
1E
0E
40
E0
E0
60
ENDCHAR
STARTCHAR C0045--
ENCODING 45
SWIDTH 535 0
DWIDTH 20 0
BBX 17 3 0 10
BITMAP
EFFB80
FFFF80
6DDB00
ENDCHAR
STARTCHAR C0046-.
ENCODING 46
SWIDTH 187 0
DWIDTH 7 0
BBX 3 3 0 0
BITMAP
E0
E0
E0
ENDCHAR
STARTCHAR C0047-/
ENCODING 47
SWIDTH 535 0
DWIDTH 20 0
BBX 17 24 0 0
BITMAP
000100
000380
000780
000300
000300
000780
000300
001800
003800
003800
001000
01C000
01C000
01C000
0C0000
1E0000
0C0000
600000
E00000
E00000
400000
E00000
E00000
E00000
ENDCHAR
STARTCHAR C0048-0
ENCODING 48
SWIDTH 535 0
DWIDTH 20 0
BBX 17 24 0 0
BITMAP
009000
1FF800
1FF800
0D9800
E00300
E00780
E00300
600300
E00780
E00380
400100
E00380
E00780
600300
E00300
E00780
E00380
600300
E00780
E00380
400300
0FF800
1FF800
0DD800
ENDCHAR
STARTCHAR C0049-1
ENCODING 49
SWIDTH 348 0
DWIDTH 13 0
BBX 10 24 0 0
BITMAP
0000
1E00
1E00
0C00
EC00
FE00
EC00
0C00
1E00
1E00
0400
0E00
1E00
0C00
0C00
1E00
0C00
0C00
1E00
1E00
0C00
EFC0
FFC0
EDC0
ENDCHAR
STARTCHAR C0050-2
ENCODING 50
SWIDTH 535 0
DWIDTH 20 0
BBX 17 24 0 0
BITMAP
009000
1FF800
1FF800
0D9800
E00300
E00780
E00300
000300
000780
000380
000100
003800
003800
001800
01C000
01C000
01C000
0C0000
1E0000
1E0000
0C0000
EFFB80
FFFF80
EDDB00
ENDCHAR
STARTCHAR C0051-3
ENCODING 51
SWIDTH 535 0
DWIDTH 20 0
BBX 17 24 0 0
BITMAP
009000
1FF800
1FF800
0D9800
E00300
E00780
E00300
000300
000780
000380
000100
01F800
01F800
01D800
000300
000780
000380
600300
E00780
E00380
400300
0FF800
1FF800
0DD800
ENDCHAR
STARTCHAR C0052-4
ENCODING 52
SWIDTH 535 0
DWIDTH 20 0
BBX 17 24 0 0
BITMAP
001000
003800
003800
001800
01F800
01F800
01F800
0C1800
1E3800
1E3800
041000
E03800
E03800
601800
EDFB00
FFFF80
EDFB80
001800
003800
003800
001000
003800
003800
001800
ENDCHAR
STARTCHAR C0053-5
ENCODING 53
SWIDTH 535 0
DWIDTH 20 0
BBX 17 24 0 0
BITMAP
409100
FFFB80
FFFF80
6D9B00
E00000
E00000
E00000
6D9800
FFF800
FFF800
449000
000380
000780
000300
000300
000780
000380
600300
E00780
E00380
400300
0FF800
1FF800
0DD800
ENDCHAR
STARTCHAR C0054-6
ENCODING 54
SWIDTH 535 0
DWIDTH 20 0
BBX 17 24 0 0
BITMAP
009000
1FF800
1FF800
0D9800
E00300
E00780
E00300
600000
E00000
E00000
400000
EFF800
FFF800
6DD800
E00300
E00780
E00380
600300
E00780
E00380
400300
0FF800
1FF800
0DD800
ENDCHAR
STARTCHAR C0055-7
ENCODING 55
SWIDTH 535 0
DWIDTH 20 0
BBX 17 24 0 0
BITMAP
409100
FFFB80
FFFF80
6D9B00
000300
000780
000300
001800
003800
003800
001000
01C000
01C000
01C000
01C000
01C000
01C000
008000
01C000
01C000
008000
01C000
01C000
01C000
ENDCHAR
STARTCHAR C0056-8
ENCODING 56
SWIDTH 535 0
DWIDTH 20 0
BBX 17 24 0 0
BITMAP
009000
1FF800
1FF800
0D9800
E00300
E00780
E00300
600300
E00780
E00380
400100
0FF800
1FF800
0DD800
E00300
E00780
E00380
600300
E00780
E00380
400300
0FF800
1FF800
0DD800
ENDCHAR
STARTCHAR C0057-9
ENCODING 57
SWIDTH 535 0
DWIDTH 20 0
BBX 17 24 0 0
BITMAP
009000
1FF800
1FF800
0D9800
E00300
E00780
E00300
600300
E00780
E00380
400100
0FFB80
1FFF80
0DDB00
000300
000780
000380
600300
E00780
E00380
400300
0FF800
1FF800
0DD800
ENDCHAR
STARTCHAR C0058-:
ENCODING 58
SWIDTH 187 0
DWIDTH 7 0
BBX 3 14 0 3
BITMAP
60
E0
E0
40
00
00
00
00
00
00
60
E0
E0
40
ENDCHAR
STARTCHAR C0059-;
ENCODING 59
SWIDTH 267 0
DWIDTH 10 0
BBX 7 24 0 -7
BITMAP
0C
1E
1E
04
00
00
00
00
00
00
0C
1E
1E
0C
0E
1E
0C
0C
1E
0E
40
E0
E0
60
ENDCHAR
STARTCHAR C0060-<
ENCODING 60
SWIDTH 348 0
DWIDTH 13 0
BBX 10 17 0 3
BITMAP
01C0
01C0
01C0
0C00
1E00
1E00
0400
E000
E000
6000
0C00
1E00
0C00
0080
01C0
01C0
0080
ENDCHAR
STARTCHAR C0061-=
ENCODING 61
SWIDTH 535 0
DWIDTH 20 0
BBX 17 10 0 7
BITMAP
6D9B00
FFFF80
FFFB80
449100
000000
000000
000000
EDFB00
FFFF80
EDFB80
ENDCHAR
STARTCHAR C0062->
ENCODING 62
SWIDTH 348 0
DWIDTH 13 0
BBX 10 17 0 3
BITMAP
E000
E000
E000
0C00
1E00
1E00
0400
01C0
01C0
01C0
0C00
1E00
0C00
6000
E000
E000
4000
ENDCHAR
STARTCHAR C0063-?
ENCODING 63
SWIDTH 535 0
DWIDTH 20 0
BBX 17 24 0 0
BITMAP
009000
1FF800
1FF800
0D9800
E00300
E00780
E00300
000300
000780
000380
000100
003800
003800
001800
01C000
01C000
01C000
000000
000000
000000
000000
01C000
01C000
01C000
ENDCHAR
STARTCHAR C0064-@
ENCODING 64
SWIDTH 535 0
DWIDTH 20 0
BBX 17 24 0 0
BITMAP
009000
1FF800
1FF800
0D9800
E1C300
E1C780
E1C300
6C1B00
FE3F80
FE3B80
441100
E1FB80
E1FF80
61DB00
EC3B00
FE3F80
EC3B80
609800
E1F800
E1F800
409000
0FF800
1FF800
0DD800
ENDCHAR
STARTCHAR C0065-A
ENCODING 65
SWIDTH 535 0
DWIDTH 20 0
BBX 17 24 0 0
BITMAP
009000
1FF800
1FF800
0D9800
E00300
E00780
E00300
600300
E00780
E00380
400100
EFFB80
FFFF80
6DDB00
E00300
E00780
E00380
600300
E00780
E00380
400300
E00380
E00780
E00300
ENDCHAR
STARTCHAR C0066-B
ENCODING 66
SWIDTH 535 0
DWIDTH 20 0
BBX 17 24 0 0
BITMAP
409000
FFF800
FFF800
6D9800
E00300
E00780
E00300
600300
E00780
E00380
400100
EFF800
FFF800
6DD800
E00300
E00780
E00380
600300
E00780
E00380
400300
EFF800
FFF800
EDD800
ENDCHAR
STARTCHAR C0067-C
ENCODING 67
SWIDTH 535 0
DWIDTH 20 0
BBX 17 24 0 0
BITMAP
009000
1FF800
1FF800
0D9800
E00300
E00780
E00300
600000
E00000
E00000
400000
E00000
E00000
600000
E00000
E00000
E00000
600300
E00780
E00380
400300
0FF800
1FF800
0DD800
ENDCHAR
STARTCHAR C0068-D
ENCODING 68
SWIDTH 535 0
DWIDTH 20 0
BBX 17 24 0 0
BITMAP
409000
FFF800
FFF800
6D9800
E00300
E00780
E00300
600300
E00780
E00380
400100
E00380
E00780
600300
E00300
E00780
E00380
600300
E00780
E00380
400300
EFF800
FFF800
EDD800
ENDCHAR
STARTCHAR C0069-E
ENCODING 69
SWIDTH 535 0
DWIDTH 20 0
BBX 17 24 0 0
BITMAP
409100
FFFB80
FFFF80
6D9B00
E00000
E00000
E00000
600000
E00000
E00000
400000
EFF800
FFF800
6DD800
E00000
E00000
E00000
600000
E00000
E00000
400000
EFFB80
FFFF80
EDDB00
ENDCHAR
STARTCHAR C0070-F
ENCODING 70
SWIDTH 535 0
DWIDTH 20 0
BBX 17 24 0 0
BITMAP
409100
FFFB80
FFFF80
6D9B00
E00000
E00000
E00000
600000
E00000
E00000
400000
EFF800
FFF800
6DD800
E00000
E00000
E00000
600000
E00000
E00000
400000
E00000
E00000
E00000
ENDCHAR
STARTCHAR C0071-G
ENCODING 71
SWIDTH 535 0
DWIDTH 20 0
BBX 17 24 0 0
BITMAP
009000
1FF800
1FF800
0D9800
E00300
E00780
E00300
600000
E00000
E00000
400000
E1FB80
E1FF80
61DB00
E00300
E00780
E00380
600300
E00780
E00380
400300
0FF800
1FF800
0DD800
ENDCHAR
STARTCHAR C0072-H
ENCODING 72
SWIDTH 535 0
DWIDTH 20 0
BBX 17 24 0 0
BITMAP
400100
E00380
E00780
600300
E00300
E00780
E00300
600300
E00780
E00380
400100
EFFB80
FFFF80
6DDB00
E00300
E00780
E00380
600300
E00780
E00380
400300
E00380
E00780
E00300
ENDCHAR
STARTCHAR C0073-I
ENCODING 73
SWIDTH 348 0
DWIDTH 13 0
BBX 10 24 0 0
BITMAP
4080
FFC0
FFC0
6D80
0C00
1E00
0C00
0C00
1E00
1E00
0400
0E00
1E00
0C00
0C00
1E00
0C00
0C00
1E00
1E00
0C00
EFC0
FFC0
EDC0
ENDCHAR
STARTCHAR C0074-J
ENCODING 74
SWIDTH 535 0
DWIDTH 20 0
BBX 17 24 0 0
BITMAP
000100
000380
000780
000300
000300
000780
000300
000300
000780
000380
000100
000380
000780
000300
000300
000780
000380
600300
E00780
E00380
400300
0FF800
1FF800
0DD800
ENDCHAR
STARTCHAR C0075-K
ENCODING 75
SWIDTH 535 0
DWIDTH 20 0
BBX 17 24 0 0
BITMAP
400100
E00380
E00780
600300
E03800
E03800
E03800
618000
E1C000
E1C000
408000
EE0000
FE0000
6C0000
E1C000
E1C000
E1C000
601800
E03800
E03800
401000
E00380
E00780
E00300
ENDCHAR
STARTCHAR C0076-L
ENCODING 76
SWIDTH 535 0
DWIDTH 20 0
BBX 17 24 0 0
BITMAP
400000
E00000
E00000
600000
E00000
E00000
E00000
600000
E00000
E00000
400000
E00000
E00000
600000
E00000
E00000
E00000
600000
E00000
E00000
400000
EFFB80
FFFF80
EDDB00
ENDCHAR
STARTCHAR C0077-M
ENCODING 77
SWIDTH 535 0
DWIDTH 20 0
BBX 17 24 0 0
BITMAP
400100
E00380
E00780
600300
EC3B00
FE3F80
EC3B00
618300
E1C780
E1C380
408100
E00380
E00780
600300
E00300
E00780
E00380
600300
E00780
E00380
400300
E00380
E00780
E00300
ENDCHAR
STARTCHAR C0078-N
ENCODING 78
SWIDTH 535 0
DWIDTH 20 0
BBX 17 24 0 0
BITMAP
400100
E00380
E00780
600300
EC0300
FE0780
EC0300
618300
E1C780
E1C380
408100
E03B80
E03F80
601B00
E00300
E00780
E00380
600300
E00780
E00380
400300
E00380
E00780
E00300
ENDCHAR
STARTCHAR C0079-O
ENCODING 79
SWIDTH 535 0
DWIDTH 20 0
BBX 17 24 0 0
BITMAP
009000
1FF800
1FF800
0D9800
E00300
E00780
E00300
600300
E00780
E00380
400100
E00380
E00780
600300
E00300
E00780
E00380
600300
E00780
E00380
400300
0FF800
1FF800
0DD800
ENDCHAR
STARTCHAR C0080-P
ENCODING 80
SWIDTH 535 0
DWIDTH 20 0
BBX 17 24 0 0
BITMAP
409000
FFF800
FFF800
6D9800
E00300
E00780
E00300
600300
E00780
E00380
400100
EFF800
FFF800
6DD800
E00000
E00000
E00000
600000
E00000
E00000
400000
E00000
E00000
E00000
ENDCHAR
STARTCHAR C0081-Q
ENCODING 81
SWIDTH 535 0
DWIDTH 20 0
BBX 17 31 0 -7
BITMAP
009000
1FF800
1FF800
0D9800
E00300
E00780
E00300
600300
E00780
E00380
400100
E00380
E00780
600300
E00300
E00780
E00380
600300
E00780
E00380
400300
0FF800
1FF800
0DD800
001800
003800
003800
000300
000380
000780
000300
ENDCHAR
STARTCHAR C0082-R
ENCODING 82
SWIDTH 535 0
DWIDTH 20 0
BBX 17 24 0 0
BITMAP
409000
FFF800
FFF800
6D9800
E00300
E00780
E00300
600300
E00780
E00380
400100
EFF800
FFF800
6DD800
E1C000
E1C000
E1C000
601800
E03800
E03800
401000
E00380
E00780
E00300
ENDCHAR
STARTCHAR C0083-S
ENCODING 83
SWIDTH 535 0
DWIDTH 20 0
BBX 17 24 0 0
BITMAP
009000
1FF800
1FF800
0D9800
E00300
E00780
E00300
600000
E00000
E00000
400000
0FF800
1FF800
0DD800
000300
000780
000380
600300
E00780
E00380
400300
0FF800
1FF800
0DD800
ENDCHAR
STARTCHAR C0084-T
ENCODING 84
SWIDTH 535 0
DWIDTH 20 0
BBX 17 24 0 0
BITMAP
409100
FFFB80
FFFF80
6D9B00
01C000
01C000
01C000
018000
01C000
01C000
008000
01C000
01C000
01C000
01C000
01C000
01C000
008000
01C000
01C000
008000
01C000
01C000
01C000
ENDCHAR
STARTCHAR C0085-U
ENCODING 85
SWIDTH 535 0
DWIDTH 20 0
BBX 17 24 0 0
BITMAP
400100
E00380
E00780
600300
E00300
E00780
E00300
600300
E00780
E00380
400100
E00380
E00780
600300
E00300
E00780
E00380
600300
E00780
E00380
400300
0FF800
1FF800
0DD800
ENDCHAR
STARTCHAR C0086-V
ENCODING 86
SWIDTH 535 0
DWIDTH 20 0
BBX 17 24 0 0
BITMAP
400100
E00380
E00780
600300
E00300
E00780
E00300
600300
E00780
E00380
400100
E00380
E00780
600300
E00300
E00780
E00380
0C1800
1E3800
1E3800
0C1000
01C000
01C000
01C000
ENDCHAR
STARTCHAR C0087-W
ENCODING 87
SWIDTH 535 0
DWIDTH 20 0
BBX 17 24 0 0
BITMAP
400100
E00380
E00780
600300
E00300
E00780
E00300
600300
E00780
E00380
400100
E1C380
E1C780
61C300
E1C300
E1C780
E1C380
6C1B00
FE3F80
FE3B80
4C1300
E00380
E00780
E00300
ENDCHAR
STARTCHAR C0088-X
ENCODING 88
SWIDTH 535 0
DWIDTH 20 0
BBX 17 24 0 0
BITMAP
400100
E00380
E00780
600300
E00300
E00780
E00300
0C1800
1E3800
1E3800
041000
01C000
01C000
01C000
0C3800
1E3800
0C3800
600300
E00780
E00380
400300
E00380
E00780
E00300
ENDCHAR
STARTCHAR C0089-Y
ENCODING 89
SWIDTH 535 0
DWIDTH 20 0
BBX 17 24 0 0
BITMAP
400100
E00380
E00780
600300
E00300
E00780
E00300
0C1800
1E3800
1E3800
041000
01C000
01C000
01C000
01C000
01C000
01C000
008000
01C000
01C000
008000
01C000
01C000
01C000
ENDCHAR
STARTCHAR C0090-Z
ENCODING 90
SWIDTH 535 0
DWIDTH 20 0
BBX 17 24 0 0
BITMAP
409100
FFFB80
FFFF80
6D9B00
000300
000780
000300
001800
003800
003800
001000
01C000
01C000
01C000
0C0000
1E0000
0C0000
600000
E00000
E00000
400000
EFFB80
FFFF80
EDDB00
ENDCHAR
STARTCHAR C0091-[
ENCODING 91
SWIDTH 267 0
DWIDTH 10 0
BBX 7 24 0 0
BITMAP
40
FE
FE
6C
E0
E0
E0
60
E0
E0
40
E0
E0
60
E0
E0
E0
60
E0
E0
40
EE
FE
EC
ENDCHAR
STARTCHAR C0092-\
ENCODING 92
SWIDTH 535 0
DWIDTH 20 0
BBX 17 24 0 0
BITMAP
400000
E00000
E00000
600000
E00000
E00000
E00000
0C0000
1E0000
1E0000
040000
01C000
01C000
01C000
003800
003800
003800
000300
000780
000380
000300
000380
000780
000300
ENDCHAR
STARTCHAR C0093-]
ENCODING 93
SWIDTH 267 0
DWIDTH 10 0
BBX 7 24 0 0
BITMAP
40
FE
FE
6C
0C
1E
0C
0C
1E
1E
04
0E
1E
0C
0C
1E
0C
0C
1E
1E
0C
EE
FE
EC
ENDCHAR
STARTCHAR C0094-^
ENCODING 94
SWIDTH 535 0
DWIDTH 20 0
BBX 17 11 0 13
BITMAP
008000
01C000
01C000
018000
0C3800
1E3800
0C3800
600300
E00780
E00380
400100
ENDCHAR
STARTCHAR C0095-_
ENCODING 95
SWIDTH 535 0
DWIDTH 20 0
BBX 17 3 0 0
BITMAP
EFFB80
FFFF80
EDDB00
ENDCHAR
STARTCHAR C0096-`
ENCODING 96
SWIDTH 562 0
DWIDTH 21 0
BBX 18 24 0 0
BITMAP
FFFFC0
800040
C000C0
A00140
900040
800040
880440
840840
820040
800040
812040
80C040
804040
800040
812040
821040
800840
800040
880440
900240
800140
800040
C000C0
FFFFC0
ENDCHAR
STARTCHAR C0097-a
ENCODING 97
SWIDTH 535 0
DWIDTH 20 0
BBX 17 17 0 0
BITMAP
0D9800
1FF800
1FF800
049000
000380
000780
000300
0DFB00
1FFF80
0DFB80
600300
E00780
E00380
400300
0FFB80
1FFF80
0DDB00
ENDCHAR
STARTCHAR C0098-b
ENCODING 98
SWIDTH 535 0
DWIDTH 20 0
BBX 17 24 0 0
BITMAP
400000
E00000
E00000
600000
E00000
E00000
E00000
619800
E1F800
E1F800
409000
EE0380
FE0780
6C0300
E00300
E00780
E00380
600300
E00780
E00380
400300
EFF800
FFF800
EDD800
ENDCHAR
STARTCHAR C0099-c
ENCODING 99
SWIDTH 535 0
DWIDTH 20 0
BBX 17 17 0 0
BITMAP
0D9B00
1FFF80
1FFB80
049100
E00000
E00000
600000
E00000
E00000
E00000
600000
E00000
E00000
400000
0FFB80
1FFF80
0DDB00
ENDCHAR
STARTCHAR C0100-d
ENCODING 100
SWIDTH 535 0
DWIDTH 20 0
BBX 17 24 0 0
BITMAP
000100
000380
000780
000300
000300
000780
000300
0D8300
1FC780
1FC380
048100
E03B80
E03F80
601B00
E00300
E00780
E00380
600300
E00780
E00380
400300
0FFB80
1FFF80
0DDB00
ENDCHAR
STARTCHAR C0101-e
ENCODING 101
SWIDTH 535 0
DWIDTH 20 0
BBX 17 17 0 0
BITMAP
0D9800
1FF800
1FF800
049000
E00380
E00780
600300
EDFB00
FFFF80
EDFB80
600000
E00000
E00000
400000
0FFB80
1FFF80
0DDB00
ENDCHAR
STARTCHAR C0102-f
ENCODING 102
SWIDTH 455 0
DWIDTH 17 0
BBX 13 24 0 0
BITMAP
0080
01C0
01C0
0180
0C38
1E38
0C38
0C00
1E00
1E00
0400
EFC0
FFC0
6DC0
0C00
1E00
0C00
0C00
1E00
1E00
0C00
0E00
1E00
0C00
ENDCHAR
STARTCHAR C0103-g
ENCODING 103
SWIDTH 535 0
DWIDTH 20 0
BBX 17 24 0 -7
BITMAP
0D9B00
1FFF80
1FFB80
049100
E00380
E00780
600300
E00300
E00780
E00380
600300
E00780
E00380
400300
0FFB80
1FFF80
0DDB00
000300
000780
000380
4C9000
FFF800
FFF800
6C9800
ENDCHAR
STARTCHAR C0104-h
ENCODING 104
SWIDTH 535 0
DWIDTH 20 0
BBX 17 24 0 0
BITMAP
400000
E00000
E00000
600000
E00000
E00000
E00000
619800
E1F800
E1F800
409000
EE0380
FE0780
6C0300
E00300
E00780
E00380
600300
E00780
E00380
400300
E00380
E00780
E00300
ENDCHAR
STARTCHAR C0105-i
ENCODING 105
SWIDTH 348 0
DWIDTH 13 0
BBX 10 24 0 0
BITMAP
0000
1E00
1E00
0C00
0000
0000
0000
6C00
FE00
FE00
4400
0E00
1E00
0C00
0C00
1E00
0C00
0C00
1E00
1E00
0C00
EFC0
FFC0
EDC0
ENDCHAR
STARTCHAR C0106-j
ENCODING 106
SWIDTH 455 0
DWIDTH 17 0
BBX 13 31 0 -7
BITMAP
0010
0038
0038
0018
0000
0000
0000
0018
0038
0038
0010
0038
0038
0018
0038
0038
0038
0018
0038
0038
0010
0038
0038
0018
E018
E038
E038
0C80
1FC0
1FC0
0C80
ENDCHAR
STARTCHAR C0107-k
ENCODING 107
SWIDTH 455 0
DWIDTH 17 0
BBX 13 24 0 0
BITMAP
4000
E000
E000
6000
E000
E000
E000
6018
E038
E038
4010
E1C0
E1C0
61C0
EC00
FE00
EC00
6080
E1C0
E1C0
4080
E038
E038
E018
ENDCHAR
STARTCHAR C0108-l
ENCODING 108
SWIDTH 348 0
DWIDTH 13 0
BBX 10 24 0 0
BITMAP
4000
FE00
FE00
6C00
0C00
1E00
0C00
0C00
1E00
1E00
0400
0E00
1E00
0C00
0C00
1E00
0C00
0C00
1E00
1E00
0C00
EFC0
FFC0
EDC0
ENDCHAR
STARTCHAR C0109-m
ENCODING 109
SWIDTH 535 0
DWIDTH 20 0
BBX 17 17 0 0
BITMAP
0C1800
1E3800
1E3800
041000
E1C380
E1C780
61C300
E1C300
E1C780
E1C380
600300
E00780
E00380
400300
E00380
E00780
E00300
ENDCHAR
STARTCHAR C0110-n
ENCODING 110
SWIDTH 535 0
DWIDTH 20 0
BBX 17 17 0 0
BITMAP
619800
E1F800
E1F800
409000
EE0380
FE0780
6C0300
E00300
E00780
E00380
600300
E00780
E00380
400300
E00380
E00780
E00300
ENDCHAR
STARTCHAR C0111-o
ENCODING 111
SWIDTH 535 0
DWIDTH 20 0
BBX 17 17 0 0
BITMAP
0D9800
1FF800
1FF800
049000
E00380
E00780
600300
E00300
E00780
E00380
600300
E00780
E00380
400300
0FF800
1FF800
0DD800
ENDCHAR
STARTCHAR C0112-p
ENCODING 112
SWIDTH 535 0
DWIDTH 20 0
BBX 17 24 0 -7
BITMAP
6D9800
FFF800
FFF800
449000
E00380
E00780
600300
E00300
E00780
E00380
600300
E00780
E00380
400300
EFF800
FFF800
EDD800
E00000
E00000
E00000
400000
E00000
E00000
600000
ENDCHAR
STARTCHAR C0113-q
ENCODING 113
SWIDTH 535 0
DWIDTH 20 0
BBX 17 24 0 -7
BITMAP
0D9B00
1FFF80
1FFB80
049100
E00380
E00780
600300
E00300
E00780
E00380
600300
E00780
E00380
400300
0FFB80
1FFF80
0DDB00
000300
000780
000380
000300
000380
000780
000300
ENDCHAR
STARTCHAR C0114-r
ENCODING 114
SWIDTH 535 0
DWIDTH 20 0
BBX 17 17 0 0
BITMAP
619800
E1F800
E1F800
409000
EE0380
FE0780
6C0300
E00000
E00000
E00000
600000
E00000
E00000
400000
E00000
E00000
E00000
ENDCHAR
STARTCHAR C0115-s
ENCODING 115
SWIDTH 535 0
DWIDTH 20 0
BBX 17 17 0 0
BITMAP
0D9B00
1FFF80
1FFB80
049100
E00000
E00000
600000
0DF800
1FF800
0DF800
000300
000780
000380
000300
EFF800
FFF800
EDD800
ENDCHAR
STARTCHAR C0116-t
ENCODING 116
SWIDTH 455 0
DWIDTH 17 0
BBX 13 24 0 0
BITMAP
0000
1E00
1E00
0C00
0C00
1E00
0C00
6D98
FFF8
FFF8
4490
0E00
1E00
0C00
0C00
1E00
0C00
0C00
1E00
1E00
0C00
01F8
01F8
01D8
ENDCHAR
STARTCHAR C0117-u
ENCODING 117
SWIDTH 535 0
DWIDTH 20 0
BBX 17 17 0 0
BITMAP
600300
E00780
E00380
400100
E00380
E00780
600300
E00300
E00780
E00380
601B00
E03F80
E03B80
401300
0FC380
1FC780
0DC300
ENDCHAR
STARTCHAR C0118-v
ENCODING 118
SWIDTH 535 0
DWIDTH 20 0
BBX 17 17 0 0
BITMAP
600300
E00780
E00380
400100
E00380
E00780
600300
E00300
E00780
E00380
0C1800
1E3800
1E3800
0C1000
01C000
01C000
01C000
ENDCHAR
STARTCHAR C0119-w
ENCODING 119
SWIDTH 535 0
DWIDTH 20 0
BBX 17 17 0 0
BITMAP
600300
E00780
E00380
400100
E1C380
E1C780
61C300
E1C300
E1C780
E1C380
608300
E1C780
E1C380
408300
0E3800
1E3800
0C1800
ENDCHAR
STARTCHAR C0120-x
ENCODING 120
SWIDTH 535 0
DWIDTH 20 0
BBX 17 17 0 0
BITMAP
600300
E00780
E00380
400100
0E3800
1E3800
0C1800
01C000
01C000
01C000
0C1800
1E3800
1E3800
0C1000
E00380
E00780
E00300
ENDCHAR
STARTCHAR C0121-y
ENCODING 121
SWIDTH 535 0
DWIDTH 20 0
BBX 17 24 0 -7
BITMAP
600300
E00780
E00380
400100
E00380
E00780
600300
E00300
E00780
E00380
600300
E00780
E00380
400300
0FFB80
1FFF80
0DDB00
000300
000780
000380
4C9000
FFF800
FFF800
6C9800
ENDCHAR
STARTCHAR C0122-z
ENCODING 122
SWIDTH 535 0
DWIDTH 20 0
BBX 17 17 0 0
BITMAP
6D9B00
FFFF80
FFFB80
449100
003800
003800
001800
01C000
01C000
01C000
0C0000
1E0000
1E0000
0C0000
EFFB80
FFFF80
EDDB00
ENDCHAR
STARTCHAR C0123-{
ENCODING 123
SWIDTH 348 0
DWIDTH 13 0
BBX 10 24 0 0
BITMAP
0080
01C0
01C0
0180
0C00
1E00
0C00
0C00
1E00
1E00
0400
E000
E000
6000
0C00
1E00
0C00
0C00
1E00
1E00
0C00
01C0
01C0
01C0
ENDCHAR
STARTCHAR C0124-|
ENCODING 124
SWIDTH 187 0
DWIDTH 7 0
BBX 3 24 0 0
BITMAP
40
E0
E0
60
E0
E0
E0
60
E0
E0
40
E0
E0
60
E0
E0
E0
60
E0
E0
40
E0
E0
E0
ENDCHAR
STARTCHAR C0125-}
ENCODING 125
SWIDTH 348 0
DWIDTH 13 0
BBX 10 24 0 0
BITMAP
4000
E000
E000
6000
0C00
1E00
0C00
0C00
1E00
1E00
0400
01C0
01C0
01C0
0C00
1E00
0C00
0C00
1E00
1E00
0C00
E000
E000
E000
ENDCHAR
STARTCHAR C0126-~
ENCODING 126
SWIDTH 535 0
DWIDTH 20 0
BBX 17 7 0 10
BITMAP
0D8300
1FC780
1FC380
048100
E03800
E03800
601800
ENDCHAR
STARTCHAR C0127
ENCODING 127
SWIDTH 562 0
DWIDTH 21 0
BBX 18 24 0 0
BITMAP
FFFFC0
800040
C000C0
A00140
900040
800040
880440
840840
820040
800040
812040
80C040
804040
800040
812040
821040
800840
800040
880440
900240
800140
800040
C000C0
FFFFC0
ENDCHAR
STARTCHAR C0128
ENCODING 128
SWIDTH 535 0
DWIDTH 20 0
BBX 17 24 0 0
BITMAP
009000
01F800
01F800
019800
0C0300
1E0780
0C0300
6D9800
FFF800
FFF800
449000
0E0000
1E0000
0C0000
EDF800
FFF800
EDF800
0C0300
1E0780
1E0380
0C0300
01F800
01F800
01D800
ENDCHAR
STARTCHAR C0129
ENCODING 129
SWIDTH 562 0
DWIDTH 21 0
BBX 18 24 0 0
BITMAP
FFFFC0
800040
C000C0
A00140
900040
800040
880440
840840
820040
800040
812040
80C040
804040
800040
812040
821040
800840
800040
880440
900240
800140
800040
C000C0
FFFFC0
ENDCHAR
STARTCHAR C0130
ENCODING 130
SWIDTH 267 0
DWIDTH 10 0
BBX 7 14 0 -7
BITMAP
0C
1E
1E
0C
0E
1E
0C
0C
1E
0E
40
E0
E0
60
ENDCHAR
STARTCHAR C0131
ENCODING 131
SWIDTH 562 0
DWIDTH 21 0
BBX 18 24 0 0
BITMAP
FFFFC0
800040
C000C0
A00140
900040
800040
880440
840840
820040
800040
812040
80C040
804040
800040
812040
821040
800840
800040
880440
900240
800140
800040
C000C0
FFFFC0
ENDCHAR
STARTCHAR C0132
ENCODING 132
SWIDTH 455 0
DWIDTH 17 0
BBX 13 14 0 -7
BITMAP
0C18
1E38
1E38
0C10
0E38
1E38
0C18
0C18
1E38
0E38
4080
E1C0
E1C0
6080
ENDCHAR
STARTCHAR C0133
ENCODING 133
SWIDTH 535 0
DWIDTH 20 0
BBX 17 3 0 0
BITMAP
E1C380
E1C780
E1C300
ENDCHAR
STARTCHAR C0134
ENCODING 134
SWIDTH 348 0
DWIDTH 13 0
BBX 10 24 0 0
BITMAP
0000
1E00
1E00
0C00
0C00
1E00
0C00
6D80
FFC0
FFC0
4480
0E00
1E00
0C00
0C00
1E00
0C00
0C00
1E00
1E00
0C00
0E00
1E00
0C00
ENDCHAR
STARTCHAR C0135
ENCODING 135
SWIDTH 562 0
DWIDTH 21 0
BBX 18 24 0 0
BITMAP
FFFFC0
800040
C000C0
A00140
900040
800040
880440
840840
820040
800040
812040
80C040
804040
800040
812040
821040
800840
800040
880440
900240
800140
800040
C000C0
FFFFC0
ENDCHAR
STARTCHAR C0136
ENCODING 136
SWIDTH 562 0
DWIDTH 21 0
BBX 18 24 0 0
BITMAP
FFFFC0
800040
C000C0
A00140
900040
800040
880440
840840
820040
800040
812040
80C040
804040
800040
812040
821040
800840
800040
880440
900240
800140
800040
C000C0
FFFFC0
ENDCHAR
STARTCHAR C0137
ENCODING 137
SWIDTH 562 0
DWIDTH 21 0
BBX 18 24 0 0
BITMAP
FFFFC0
800040
C000C0
A00140
900040
800040
880440
840840
820040
800040
812040
80C040
804040
800040
812040
821040
800840
800040
880440
900240
800140
800040
C000C0
FFFFC0
ENDCHAR
STARTCHAR C0138
ENCODING 138
SWIDTH 562 0
DWIDTH 21 0
BBX 18 24 0 0
BITMAP
FFFFC0
800040
C000C0
A00140
900040
800040
880440
840840
820040
800040
812040
80C040
804040
800040
812040
821040
800840
800040
880440
900240
800140
800040
C000C0
FFFFC0
ENDCHAR
STARTCHAR C0139
ENCODING 139
SWIDTH 267 0
DWIDTH 10 0
BBX 7 10 0 7
BITMAP
0C
1E
1E
04
E0
E0
60
0C
1E
0C
ENDCHAR
STARTCHAR C0140
ENCODING 140
SWIDTH 562 0
DWIDTH 21 0
BBX 18 24 0 0
BITMAP
FFFFC0
800040
C000C0
A00140
900040
800040
880440
840840
820040
800040
812040
80C040
804040
800040
812040
821040
800840
800040
880440
900240
800140
800040
C000C0
FFFFC0
ENDCHAR
STARTCHAR C0141
ENCODING 141
SWIDTH 562 0
DWIDTH 21 0
BBX 18 24 0 0
BITMAP
FFFFC0
800040
C000C0
A00140
900040
800040
880440
840840
820040
800040
812040
80C040
804040
800040
812040
821040
800840
800040
880440
900240
800140
800040
C000C0
FFFFC0
ENDCHAR
STARTCHAR C0142
ENCODING 142
SWIDTH 562 0
DWIDTH 21 0
BBX 18 24 0 0
BITMAP
FFFFC0
800040
C000C0
A00140
900040
800040
880440
840840
820040
800040
812040
80C040
804040
800040
812040
821040
800840
800040
880440
900240
800140
800040
C000C0
FFFFC0
ENDCHAR
STARTCHAR C0143
ENCODING 143
SWIDTH 562 0
DWIDTH 21 0
BBX 18 24 0 0
BITMAP
FFFFC0
800040
C000C0
A00140
900040
800040
880440
840840
820040
800040
812040
80C040
804040
800040
812040
821040
800840
800040
880440
900240
800140
800040
C000C0
FFFFC0
ENDCHAR
STARTCHAR C0144
ENCODING 144
SWIDTH 562 0
DWIDTH 21 0
BBX 18 24 0 0
BITMAP
FFFFC0
800040
C000C0
A00140
900040
800040
880440
840840
820040
800040
812040
80C040
804040
800040
812040
821040
800840
800040
880440
900240
800140
800040
C000C0
FFFFC0
ENDCHAR
STARTCHAR C0145
ENCODING 145
SWIDTH 267 0
DWIDTH 10 0
BBX 7 11 0 13
BITMAP
00
1E
1E
0C
E0
E0
E0
60
E0
E0
40
ENDCHAR
STARTCHAR C0146
ENCODING 146
SWIDTH 267 0
DWIDTH 10 0
BBX 7 11 0 13
BITMAP
00
1E
1E
0C
0C
1E
0C
60
E0
E0
40
ENDCHAR
STARTCHAR C0147
ENCODING 147
SWIDTH 455 0
DWIDTH 17 0
BBX 13 11 0 13
BITMAP
4080
E1C0
E1C0
6180
E1C0
E1C0
E1C0
0C18
1E38
1E38
0410
ENDCHAR
STARTCHAR C0148
ENCODING 148
SWIDTH 455 0
DWIDTH 17 0
BBX 13 11 0 13
BITMAP
0010
1E38
1E38
0C18
0C38
1E38
0C38
6180
E1C0
E1C0
4080
ENDCHAR
STARTCHAR C0149
ENCODING 149
SWIDTH 187 0
DWIDTH 7 0
BBX 3 3 0 10
BITMAP
E0
E0
60
ENDCHAR
STARTCHAR C0150
ENCODING 150
SWIDTH 562 0
DWIDTH 21 0
BBX 18 24 0 0
BITMAP
FFFFC0
800040
C000C0
A00140
900040
800040
880440
840840
820040
800040
812040
80C040
804040
800040
812040
821040
800840
800040
880440
900240
800140
800040
C000C0
FFFFC0
ENDCHAR
STARTCHAR C0151
ENCODING 151
SWIDTH 535 0
DWIDTH 20 0
BBX 17 3 0 10
BITMAP
EFFB80
FFFF80
6DDB00
ENDCHAR
STARTCHAR C0152
ENCODING 152
SWIDTH 562 0
DWIDTH 21 0
BBX 18 24 0 0
BITMAP
FFFFC0
800040
C000C0
A00140
900040
800040
880440
840840
820040
800040
812040
80C040
804040
800040
812040
821040
800840
800040
880440
900240
800140
800040
C000C0
FFFFC0
ENDCHAR
STARTCHAR C0153
ENCODING 153
SWIDTH 562 0
DWIDTH 21 0
BBX 18 24 0 0
BITMAP
FFFFC0
800040
C000C0
A00140
900040
800040
880440
840840
820040
800040
812040
80C040
804040
800040
812040
821040
800840
800040
880440
900240
800140
800040
C000C0
FFFFC0
ENDCHAR
STARTCHAR C0154
ENCODING 154
SWIDTH 562 0
DWIDTH 21 0
BBX 18 24 0 0
BITMAP
FFFFC0
800040
C000C0
A00140
900040
800040
880440
840840
820040
800040
812040
80C040
804040
800040
812040
821040
800840
800040
880440
900240
800140
800040
C000C0
FFFFC0
ENDCHAR
STARTCHAR C0155
ENCODING 155
SWIDTH 267 0
DWIDTH 10 0
BBX 7 10 0 7
BITMAP
60
E0
E0
40
0E
1E
0C
E0
E0
E0
ENDCHAR
STARTCHAR C0156
ENCODING 156
SWIDTH 562 0
DWIDTH 21 0
BBX 18 24 0 0
BITMAP
FFFFC0
800040
C000C0
A00140
900040
800040
880440
840840
820040
800040
812040
80C040
804040
800040
812040
821040
800840
800040
880440
900240
800140
800040
C000C0
FFFFC0
ENDCHAR
STARTCHAR C0157
ENCODING 157
SWIDTH 562 0
DWIDTH 21 0
BBX 18 24 0 0
BITMAP
FFFFC0
800040
C000C0
A00140
900040
800040
880440
840840
820040
800040
812040
80C040
804040
800040
812040
821040
800840
800040
880440
900240
800140
800040
C000C0
FFFFC0
ENDCHAR
STARTCHAR C0158
ENCODING 158
SWIDTH 562 0
DWIDTH 21 0
BBX 18 24 0 0
BITMAP
FFFFC0
800040
C000C0
A00140
900040
800040
880440
840840
820040
800040
812040
80C040
804040
800040
812040
821040
800840
800040
880440
900240
800140
800040
C000C0
FFFFC0
ENDCHAR
STARTCHAR C0159
ENCODING 159
SWIDTH 562 0
DWIDTH 21 0
BBX 18 24 0 0
BITMAP
FFFFC0
800040
C000C0
A00140
900040
800040
880440
840840
820040
800040
812040
80C040
804040
800040
812040
821040
800840
800040
880440
900240
800140
800040
C000C0
FFFFC0
ENDCHAR
STARTCHAR C0160
ENCODING 160
SWIDTH 562 0
DWIDTH 21 0
BBX 18 24 0 0
BITMAP
FFFFC0
800040
C000C0
A00140
900040
800040
880440
840840
820040
800040
812040
80C040
804040
800040
812040
821040
800840
800040
880440
900240
800140
800040
C000C0
FFFFC0
ENDCHAR
STARTCHAR C0161
ENCODING 161
SWIDTH 187 0
DWIDTH 7 0
BBX 3 24 0 -7
BITMAP
60
E0
E0
40
00
00
00
E0
E0
E0
60
E0
E0
40
E0
E0
E0
E0
E0
E0
40
E0
E0
60
ENDCHAR
STARTCHAR C0162
ENCODING 162
SWIDTH 80 0
DWIDTH 3 0
BBX 1 1 0 -1
BITMAP
00
ENDCHAR
STARTCHAR C0163
ENCODING 163
SWIDTH 535 0
DWIDTH 20 0
BBX 17 24 0 0
BITMAP
009000
01F800
01F800
019800
0C0300
1E0780
0C0300
0C0000
1E0000
1E0000
040000
EFF800
FFF800
6DD800
0C0000
1E0000
0C0000
0C0000
1E0000
1E0000
0C0000
EFFB80
FFFF80
EDDB00
ENDCHAR
STARTCHAR C0164
ENCODING 164
SWIDTH 562 0
DWIDTH 21 0
BBX 18 24 0 0
BITMAP
FFFFC0
800040
C000C0
A00140
900040
800040
880440
840840
820040
800040
812040
80C040
804040
800040
812040
821040
800840
800040
880440
900240
800140
800040
C000C0
FFFFC0
ENDCHAR
STARTCHAR C0165
ENCODING 165
SWIDTH 562 0
DWIDTH 21 0
BBX 18 24 0 0
BITMAP
FFFFC0
800040
C000C0
A00140
900040
800040
880440
840840
820040
800040
812040
80C040
804040
800040
812040
821040
800840
800040
880440
900240
800140
800040
C000C0
FFFFC0
ENDCHAR
STARTCHAR C0166
ENCODING 166
SWIDTH 187 0
DWIDTH 7 0
BBX 3 24 0 0
BITMAP
40
E0
E0
60
E0
E0
E0
60
E0
E0
40
00
00
00
E0
E0
E0
60
E0
E0
40
E0
E0
E0
ENDCHAR
STARTCHAR C0167
ENCODING 167
SWIDTH 535 0
DWIDTH 20 0
BBX 17 24 0 0
BITMAP
009000
1FF800
1FF800
0D9800
E00300
E00780
E00300
0D8000
1FC000
1FC000
048000
0E3800
1E3800
0C1800
01F800
01F800
01F800
600300
E00780
E00380
400300
0FF800
1FF800
0DD800
ENDCHAR
STARTCHAR C0168
ENCODING 168
SWIDTH 562 0
DWIDTH 21 0
BBX 18 24 0 0
BITMAP
FFFFC0
800040
C000C0
A00140
900040
800040
880440
840840
820040
800040
812040
80C040
804040
800040
812040
821040
800840
800040
880440
900240
800140
800040
C000C0
FFFFC0
ENDCHAR
STARTCHAR C0169
ENCODING 169
SWIDTH 535 0
DWIDTH 20 0
BBX 17 24 0 0
BITMAP
009000
1FF800
1FF800
0D9800
E00300
E00780
E00300
619B00
E1FF80
E1FB80
409100
EE0380
FE0780
6C0300
E1FB00
E1FF80
E1FB80
600300
E00780
E00380
400300
0FF800
1FF800
0DD800
ENDCHAR
STARTCHAR C0170
ENCODING 170
SWIDTH 562 0
DWIDTH 21 0
BBX 18 24 0 0
BITMAP
FFFFC0
800040
C000C0
A00140
900040
800040
880440
840840
820040
800040
812040
80C040
804040
800040
812040
821040
800840
800040
880440
900240
800140
800040
C000C0
FFFFC0
ENDCHAR
STARTCHAR C0171
ENCODING 171
SWIDTH 535 0
DWIDTH 20 0
BBX 17 17 0 3
BITMAP
01C300
01C780
01C300
0C1800
1E3800
1E3800
041000
E1C000
E1C000
61C000
0C3800
1E3800
0C3800
008300
01C780
01C380
008300
ENDCHAR
STARTCHAR C0172
ENCODING 172
SWIDTH 535 0
DWIDTH 20 0
BBX 17 6 0 7
BITMAP
EFFB80
FFFF80
6DDB00
000300
000780
000380
ENDCHAR
STARTCHAR C0173
ENCODING 173
SWIDTH 535 0
DWIDTH 20 0
BBX 17 3 0 10
BITMAP
EFFB80
FFFF80
6DDB00
ENDCHAR
STARTCHAR C0174
ENCODING 174
SWIDTH 535 0
DWIDTH 20 0
BBX 17 24 0 0
BITMAP
009000
1FF800
1FF800
0D9800
EDC300
FFC780
EDC300
6C1B00
FE3F80
FE3B80
441100
EFC380
FFC780
6DC300
EC3B00
FE3F80
EC3B80
6C1B00
FE3F80
FE3B80
4C1300
0FF800
1FF800
0DD800
ENDCHAR
STARTCHAR C0175
ENCODING 175
SWIDTH 562 0
DWIDTH 21 0
BBX 18 24 0 0
BITMAP
FFFFC0
800040
C000C0
A00140
900040
800040
880440
840840
820040
800040
812040
80C040
804040
800040
812040
821040
800840
800040
880440
900240
800140
800040
C000C0
FFFFC0
ENDCHAR
STARTCHAR C0176
ENCODING 176
SWIDTH 348 0
DWIDTH 13 0
BBX 10 11 0 13
BITMAP
0000
1E00
1E00
0C00
E1C0
E1C0
E1C0
0C00
1E00
1E00
0400
ENDCHAR
STARTCHAR C0177
ENCODING 177
SWIDTH 535 0
DWIDTH 20 0
BBX 17 24 0 0
BITMAP
008000
01C000
01C000
018000
01C000
01C000
01C000
6D9B00
FFFF80
FFFB80
449100
01C000
01C000
01C000
01C000
01C000
01C000
000000
000000
000000
000000
EFFB80
FFFF80
EDDB00
ENDCHAR
STARTCHAR C0178
ENCODING 178
SWIDTH 348 0
DWIDTH 13 0
BBX 10 14 0 10
BITMAP
4000
FE00
FE00
6C00
01C0
01C0
01C0
0C00
1E00
1E00
0400
EFC0
FFC0
6DC0
ENDCHAR
STARTCHAR C0179
ENCODING 179
SWIDTH 348 0
DWIDTH 13 0
BBX 10 14 0 10
BITMAP
4080
FFC0
FFC0
6D80
0C00
1E00
0C00
0180
01C0
01C0
0080
EE00
FE00
6C00
ENDCHAR
STARTCHAR C0180
ENCODING 180
SWIDTH 562 0
DWIDTH 21 0
BBX 18 24 0 0
BITMAP
FFFFC0
800040
C000C0
A00140
900040
800040
880440
840840
820040
800040
812040
80C040
804040
800040
812040
821040
800840
800040
880440
900240
800140
800040
C000C0
FFFFC0
ENDCHAR
STARTCHAR C0181
ENCODING 181
SWIDTH 562 0
DWIDTH 21 0
BBX 18 24 0 0
BITMAP
FFFFC0
800040
C000C0
A00140
900040
800040
880440
840840
820040
800040
812040
80C040
804040
800040
812040
821040
800840
800040
880440
900240
800140
800040
C000C0
FFFFC0
ENDCHAR
STARTCHAR C0182
ENCODING 182
SWIDTH 535 0
DWIDTH 20 0
BBX 17 24 0 0
BITMAP
009100
1FFB80
1FFF80
0D9B00
EDC300
FFC780
EDC300
6D8300
FFC780
FFC380
448100
0FC380
1FC780
0DC300
01C300
01C780
01C380
008300
01C780
01C380
008300
01C380
01C780
01C300
ENDCHAR
STARTCHAR C0183
ENCODING 183
SWIDTH 187 0
DWIDTH 7 0
BBX 3 3 0 10
BITMAP
E0
E0
60
ENDCHAR
STARTCHAR C0184
ENCODING 184
SWIDTH 562 0
DWIDTH 21 0
BBX 18 24 0 0
BITMAP
FFFFC0
800040
C000C0
A00140
900040
800040
880440
840840
820040
800040
812040
80C040
804040
800040
812040
821040
800840
800040
880440
900240
800140
800040
C000C0
FFFFC0
ENDCHAR
STARTCHAR C0185
ENCODING 185
SWIDTH 267 0
DWIDTH 10 0
BBX 7 14 0 10
BITMAP
00
1E
1E
0C
EC
FE
EC
0C
1E
1E
04
0E
1E
0C
ENDCHAR
STARTCHAR C0186
ENCODING 186
SWIDTH 562 0
DWIDTH 21 0
BBX 18 24 0 0
BITMAP
FFFFC0
800040
C000C0
A00140
900040
800040
880440
840840
820040
800040
812040
80C040
804040
800040
812040
821040
800840
800040
880440
900240
800140
800040
C000C0
FFFFC0
ENDCHAR
STARTCHAR C0187
ENCODING 187
SWIDTH 535 0
DWIDTH 20 0
BBX 17 17 0 3
BITMAP
E1C000
E1C000
E1C000
0C1800
1E3800
1E3800
041000
01C380
01C780
01C300
0C3800
1E3800
0C3800
608000
E1C000
E1C000
408000
ENDCHAR
STARTCHAR C0188
ENCODING 188
SWIDTH 562 0
DWIDTH 21 0
BBX 18 24 0 0
BITMAP
FFFFC0
800040
C000C0
A00140
900040
800040
880440
840840
820040
800040
812040
80C040
804040
800040
812040
821040
800840
800040
880440
900240
800140
800040
C000C0
FFFFC0
ENDCHAR
STARTCHAR C0189
ENCODING 189
SWIDTH 562 0
DWIDTH 21 0
BBX 18 24 0 0
BITMAP
FFFFC0
800040
C000C0
A00140
900040
800040
880440
840840
820040
800040
812040
80C040
804040
800040
812040
821040
800840
800040
880440
900240
800140
800040
C000C0
FFFFC0
ENDCHAR
STARTCHAR C0190
ENCODING 190
SWIDTH 562 0
DWIDTH 21 0
BBX 18 24 0 0
BITMAP
FFFFC0
800040
C000C0
A00140
900040
800040
880440
840840
820040
800040
812040
80C040
804040
800040
812040
821040
800840
800040
880440
900240
800140
800040
C000C0
FFFFC0
ENDCHAR
STARTCHAR C0191
ENCODING 191
SWIDTH 535 0
DWIDTH 20 0
BBX 17 24 0 -7
BITMAP
018000
01C000
01C000
008000
000000
000000
000000
01C000
01C000
01C000
0C0000
1E0000
1E0000
0C0000
E00000
E00000
E00000
E00300
E00780
E00380
0C9000
1FF800
1FF800
0C9800
ENDCHAR
STARTCHAR C0192
ENCODING 192
SWIDTH 562 0
DWIDTH 21 0
BBX 18 24 0 0
BITMAP
FFFFC0
800040
C000C0
A00140
900040
800040
880440
840840
820040
800040
812040
80C040
804040
800040
812040
821040
800840
800040
880440
900240
800140
800040
C000C0
FFFFC0
ENDCHAR
STARTCHAR C0193
ENCODING 193
SWIDTH 562 0
DWIDTH 21 0
BBX 18 24 0 0
BITMAP
FFFFC0
800040
C000C0
A00140
900040
800040
880440
840840
820040
800040
812040
80C040
804040
800040
812040
821040
800840
800040
880440
900240
800140
800040
C000C0
FFFFC0
ENDCHAR
STARTCHAR C0194
ENCODING 194
SWIDTH 562 0
DWIDTH 21 0
BBX 18 24 0 0
BITMAP
FFFFC0
800040
C000C0
A00140
900040
800040
880440
840840
820040
800040
812040
80C040
804040
800040
812040
821040
800840
800040
880440
900240
800140
800040
C000C0
FFFFC0
ENDCHAR
STARTCHAR C0195
ENCODING 195
SWIDTH 562 0
DWIDTH 21 0
BBX 18 24 0 0
BITMAP
FFFFC0
800040
C000C0
A00140
900040
800040
880440
840840
820040
800040
812040
80C040
804040
800040
812040
821040
800840
800040
880440
900240
800140
800040
C000C0
FFFFC0
ENDCHAR
STARTCHAR C0196
ENCODING 196
SWIDTH 562 0
DWIDTH 21 0
BBX 18 24 0 0
BITMAP
FFFFC0
800040
C000C0
A00140
900040
800040
880440
840840
820040
800040
812040
80C040
804040
800040
812040
821040
800840
800040
880440
900240
800140
800040
C000C0
FFFFC0
ENDCHAR
STARTCHAR C0197
ENCODING 197
SWIDTH 562 0
DWIDTH 21 0
BBX 18 24 0 0
BITMAP
FFFFC0
800040
C000C0
A00140
900040
800040
880440
840840
820040
800040
812040
80C040
804040
800040
812040
821040
800840
800040
880440
900240
800140
800040
C000C0
FFFFC0
ENDCHAR
STARTCHAR C0198
ENCODING 198
SWIDTH 562 0
DWIDTH 21 0
BBX 18 24 0 0
BITMAP
FFFFC0
800040
C000C0
A00140
900040
800040
880440
840840
820040
800040
812040
80C040
804040
800040
812040
821040
800840
800040
880440
900240
800140
800040
C000C0
FFFFC0
ENDCHAR
STARTCHAR C0199
ENCODING 199
SWIDTH 562 0
DWIDTH 21 0
BBX 18 24 0 0
BITMAP
FFFFC0
800040
C000C0
A00140
900040
800040
880440
840840
820040
800040
812040
80C040
804040
800040
812040
821040
800840
800040
880440
900240
800140
800040
C000C0
FFFFC0
ENDCHAR
STARTCHAR C0200
ENCODING 200
SWIDTH 562 0
DWIDTH 21 0
BBX 18 24 0 0
BITMAP
FFFFC0
800040
C000C0
A00140
900040
800040
880440
840840
820040
800040
812040
80C040
804040
800040
812040
821040
800840
800040
880440
900240
800140
800040
C000C0
FFFFC0
ENDCHAR
STARTCHAR C0201
ENCODING 201
SWIDTH 562 0
DWIDTH 21 0
BBX 18 24 0 0
BITMAP
FFFFC0
800040
C000C0
A00140
900040
800040
880440
840840
820040
800040
812040
80C040
804040
800040
812040
821040
800840
800040
880440
900240
800140
800040
C000C0
FFFFC0
ENDCHAR
STARTCHAR C0202
ENCODING 202
SWIDTH 562 0
DWIDTH 21 0
BBX 18 24 0 0
BITMAP
FFFFC0
800040
C000C0
A00140
900040
800040
880440
840840
820040
800040
812040
80C040
804040
800040
812040
821040
800840
800040
880440
900240
800140
800040
C000C0
FFFFC0
ENDCHAR
STARTCHAR C0203
ENCODING 203
SWIDTH 562 0
DWIDTH 21 0
BBX 18 24 0 0
BITMAP
FFFFC0
800040
C000C0
A00140
900040
800040
880440
840840
820040
800040
812040
80C040
804040
800040
812040
821040
800840
800040
880440
900240
800140
800040
C000C0
FFFFC0
ENDCHAR
STARTCHAR C0204
ENCODING 204
SWIDTH 562 0
DWIDTH 21 0
BBX 18 24 0 0
BITMAP
FFFFC0
800040
C000C0
A00140
900040
800040
880440
840840
820040
800040
812040
80C040
804040
800040
812040
821040
800840
800040
880440
900240
800140
800040
C000C0
FFFFC0
ENDCHAR
STARTCHAR C0205
ENCODING 205
SWIDTH 562 0
DWIDTH 21 0
BBX 18 24 0 0
BITMAP
FFFFC0
800040
C000C0
A00140
900040
800040
880440
840840
820040
800040
812040
80C040
804040
800040
812040
821040
800840
800040
880440
900240
800140
800040
C000C0
FFFFC0
ENDCHAR
STARTCHAR C0206
ENCODING 206
SWIDTH 562 0
DWIDTH 21 0
BBX 18 24 0 0
BITMAP
FFFFC0
800040
C000C0
A00140
900040
800040
880440
840840
820040
800040
812040
80C040
804040
800040
812040
821040
800840
800040
880440
900240
800140
800040
C000C0
FFFFC0
ENDCHAR
STARTCHAR C0207
ENCODING 207
SWIDTH 562 0
DWIDTH 21 0
BBX 18 24 0 0
BITMAP
FFFFC0
800040
C000C0
A00140
900040
800040
880440
840840
820040
800040
812040
80C040
804040
800040
812040
821040
800840
800040
880440
900240
800140
800040
C000C0
FFFFC0
ENDCHAR
STARTCHAR C0208
ENCODING 208
SWIDTH 562 0
DWIDTH 21 0
BBX 18 24 0 0
BITMAP
FFFFC0
800040
C000C0
A00140
900040
800040
880440
840840
820040
800040
812040
80C040
804040
800040
812040
821040
800840
800040
880440
900240
800140
800040
C000C0
FFFFC0
ENDCHAR
STARTCHAR C0209
ENCODING 209
SWIDTH 562 0
DWIDTH 21 0
BBX 18 24 0 0
BITMAP
FFFFC0
800040
C000C0
A00140
900040
800040
880440
840840
820040
800040
812040
80C040
804040
800040
812040
821040
800840
800040
880440
900240
800140
800040
C000C0
FFFFC0
ENDCHAR
STARTCHAR C0210
ENCODING 210
SWIDTH 562 0
DWIDTH 21 0
BBX 18 24 0 0
BITMAP
FFFFC0
800040
C000C0
A00140
900040
800040
880440
840840
820040
800040
812040
80C040
804040
800040
812040
821040
800840
800040
880440
900240
800140
800040
C000C0
FFFFC0
ENDCHAR
STARTCHAR C0211
ENCODING 211
SWIDTH 562 0
DWIDTH 21 0
BBX 18 24 0 0
BITMAP
FFFFC0
800040
C000C0
A00140
900040
800040
880440
840840
820040
800040
812040
80C040
804040
800040
812040
821040
800840
800040
880440
900240
800140
800040
C000C0
FFFFC0
ENDCHAR
STARTCHAR C0212
ENCODING 212
SWIDTH 562 0
DWIDTH 21 0
BBX 18 24 0 0
BITMAP
FFFFC0
800040
C000C0
A00140
900040
800040
880440
840840
820040
800040
812040
80C040
804040
800040
812040
821040
800840
800040
880440
900240
800140
800040
C000C0
FFFFC0
ENDCHAR
STARTCHAR C0213
ENCODING 213
SWIDTH 562 0
DWIDTH 21 0
BBX 18 24 0 0
BITMAP
FFFFC0
800040
C000C0
A00140
900040
800040
880440
840840
820040
800040
812040
80C040
804040
800040
812040
821040
800840
800040
880440
900240
800140
800040
C000C0
FFFFC0
ENDCHAR
STARTCHAR C0214
ENCODING 214
SWIDTH 562 0
DWIDTH 21 0
BBX 18 24 0 0
BITMAP
FFFFC0
800040
C000C0
A00140
900040
800040
880440
840840
820040
800040
812040
80C040
804040
800040
812040
821040
800840
800040
880440
900240
800140
800040
C000C0
FFFFC0
ENDCHAR
STARTCHAR C0215
ENCODING 215
SWIDTH 535 0
DWIDTH 20 0
BBX 17 17 0 3
BITMAP
E00300
E00780
E00300
0C1800
1E3800
1E3800
041000
01C000
01C000
01C000
0C3800
1E3800
0C3800
600300
E00780
E00380
400300
ENDCHAR
STARTCHAR C0216
ENCODING 216
SWIDTH 562 0
DWIDTH 21 0
BBX 18 24 0 0
BITMAP
FFFFC0
800040
C000C0
A00140
900040
800040
880440
840840
820040
800040
812040
80C040
804040
800040
812040
821040
800840
800040
880440
900240
800140
800040
C000C0
FFFFC0
ENDCHAR
STARTCHAR C0217
ENCODING 217
SWIDTH 562 0
DWIDTH 21 0
BBX 18 24 0 0
BITMAP
FFFFC0
800040
C000C0
A00140
900040
800040
880440
840840
820040
800040
812040
80C040
804040
800040
812040
821040
800840
800040
880440
900240
800140
800040
C000C0
FFFFC0
ENDCHAR
STARTCHAR C0218
ENCODING 218
SWIDTH 562 0
DWIDTH 21 0
BBX 18 24 0 0
BITMAP
FFFFC0
800040
C000C0
A00140
900040
800040
880440
840840
820040
800040
812040
80C040
804040
800040
812040
821040
800840
800040
880440
900240
800140
800040
C000C0
FFFFC0
ENDCHAR
STARTCHAR C0219
ENCODING 219
SWIDTH 562 0
DWIDTH 21 0
BBX 18 24 0 0
BITMAP
FFFFC0
800040
C000C0
A00140
900040
800040
880440
840840
820040
800040
812040
80C040
804040
800040
812040
821040
800840
800040
880440
900240
800140
800040
C000C0
FFFFC0
ENDCHAR
STARTCHAR C0220
ENCODING 220
SWIDTH 562 0
DWIDTH 21 0
BBX 18 24 0 0
BITMAP
FFFFC0
800040
C000C0
A00140
900040
800040
880440
840840
820040
800040
812040
80C040
804040
800040
812040
821040
800840
800040
880440
900240
800140
800040
C000C0
FFFFC0
ENDCHAR
STARTCHAR C0221
ENCODING 221
SWIDTH 562 0
DWIDTH 21 0
BBX 18 24 0 0
BITMAP
FFFFC0
800040
C000C0
A00140
900040
800040
880440
840840
820040
800040
812040
80C040
804040
800040
812040
821040
800840
800040
880440
900240
800140
800040
C000C0
FFFFC0
ENDCHAR
STARTCHAR C0222
ENCODING 222
SWIDTH 562 0
DWIDTH 21 0
BBX 18 24 0 0
BITMAP
FFFFC0
800040
C000C0
A00140
900040
800040
880440
840840
820040
800040
812040
80C040
804040
800040
812040
821040
800840
800040
880440
900240
800140
800040
C000C0
FFFFC0
ENDCHAR
STARTCHAR C0223
ENCODING 223
SWIDTH 562 0
DWIDTH 21 0
BBX 18 24 0 0
BITMAP
FFFFC0
800040
C000C0
A00140
900040
800040
880440
840840
820040
800040
812040
80C040
804040
800040
812040
821040
800840
800040
880440
900240
800140
800040
C000C0
FFFFC0
ENDCHAR
STARTCHAR C0224
ENCODING 224
SWIDTH 562 0
DWIDTH 21 0
BBX 18 24 0 0
BITMAP
FFFFC0
800040
C000C0
A00140
900040
800040
880440
840840
820040
800040
812040
80C040
804040
800040
812040
821040
800840
800040
880440
900240
800140
800040
C000C0
FFFFC0
ENDCHAR
STARTCHAR C0225
ENCODING 225
SWIDTH 562 0
DWIDTH 21 0
BBX 18 24 0 0
BITMAP
FFFFC0
800040
C000C0
A00140
900040
800040
880440
840840
820040
800040
812040
80C040
804040
800040
812040
821040
800840
800040
880440
900240
800140
800040
C000C0
FFFFC0
ENDCHAR
STARTCHAR C0226
ENCODING 226
SWIDTH 562 0
DWIDTH 21 0
BBX 18 24 0 0
BITMAP
FFFFC0
800040
C000C0
A00140
900040
800040
880440
840840
820040
800040
812040
80C040
804040
800040
812040
821040
800840
800040
880440
900240
800140
800040
C000C0
FFFFC0
ENDCHAR
STARTCHAR C0227
ENCODING 227
SWIDTH 562 0
DWIDTH 21 0
BBX 18 24 0 0
BITMAP
FFFFC0
800040
C000C0
A00140
900040
800040
880440
840840
820040
800040
812040
80C040
804040
800040
812040
821040
800840
800040
880440
900240
800140
800040
C000C0
FFFFC0
ENDCHAR
STARTCHAR C0228
ENCODING 228
SWIDTH 562 0
DWIDTH 21 0
BBX 18 24 0 0
BITMAP
FFFFC0
800040
C000C0
A00140
900040
800040
880440
840840
820040
800040
812040
80C040
804040
800040
812040
821040
800840
800040
880440
900240
800140
800040
C000C0
FFFFC0
ENDCHAR
STARTCHAR C0229
ENCODING 229
SWIDTH 562 0
DWIDTH 21 0
BBX 18 24 0 0
BITMAP
FFFFC0
800040
C000C0
A00140
900040
800040
880440
840840
820040
800040
812040
80C040
804040
800040
812040
821040
800840
800040
880440
900240
800140
800040
C000C0
FFFFC0
ENDCHAR
STARTCHAR C0230
ENCODING 230
SWIDTH 562 0
DWIDTH 21 0
BBX 18 24 0 0
BITMAP
FFFFC0
800040
C000C0
A00140
900040
800040
880440
840840
820040
800040
812040
80C040
804040
800040
812040
821040
800840
800040
880440
900240
800140
800040
C000C0
FFFFC0
ENDCHAR
STARTCHAR C0231
ENCODING 231
SWIDTH 562 0
DWIDTH 21 0
BBX 18 24 0 0
BITMAP
FFFFC0
800040
C000C0
A00140
900040
800040
880440
840840
820040
800040
812040
80C040
804040
800040
812040
821040
800840
800040
880440
900240
800140
800040
C000C0
FFFFC0
ENDCHAR
STARTCHAR C0232
ENCODING 232
SWIDTH 562 0
DWIDTH 21 0
BBX 18 24 0 0
BITMAP
FFFFC0
800040
C000C0
A00140
900040
800040
880440
840840
820040
800040
812040
80C040
804040
800040
812040
821040
800840
800040
880440
900240
800140
800040
C000C0
FFFFC0
ENDCHAR
STARTCHAR C0233
ENCODING 233
SWIDTH 562 0
DWIDTH 21 0
BBX 18 24 0 0
BITMAP
FFFFC0
800040
C000C0
A00140
900040
800040
880440
840840
820040
800040
812040
80C040
804040
800040
812040
821040
800840
800040
880440
900240
800140
800040
C000C0
FFFFC0
ENDCHAR
STARTCHAR C0234
ENCODING 234
SWIDTH 562 0
DWIDTH 21 0
BBX 18 24 0 0
BITMAP
FFFFC0
800040
C000C0
A00140
900040
800040
880440
840840
820040
800040
812040
80C040
804040
800040
812040
821040
800840
800040
880440
900240
800140
800040
C000C0
FFFFC0
ENDCHAR
STARTCHAR C0235
ENCODING 235
SWIDTH 562 0
DWIDTH 21 0
BBX 18 24 0 0
BITMAP
FFFFC0
800040
C000C0
A00140
900040
800040
880440
840840
820040
800040
812040
80C040
804040
800040
812040
821040
800840
800040
880440
900240
800140
800040
C000C0
FFFFC0
ENDCHAR
STARTCHAR C0236
ENCODING 236
SWIDTH 562 0
DWIDTH 21 0
BBX 18 24 0 0
BITMAP
FFFFC0
800040
C000C0
A00140
900040
800040
880440
840840
820040
800040
812040
80C040
804040
800040
812040
821040
800840
800040
880440
900240
800140
800040
C000C0
FFFFC0
ENDCHAR
STARTCHAR C0237
ENCODING 237
SWIDTH 562 0
DWIDTH 21 0
BBX 18 24 0 0
BITMAP
FFFFC0
800040
C000C0
A00140
900040
800040
880440
840840
820040
800040
812040
80C040
804040
800040
812040
821040
800840
800040
880440
900240
800140
800040
C000C0
FFFFC0
ENDCHAR
STARTCHAR C0238
ENCODING 238
SWIDTH 562 0
DWIDTH 21 0
BBX 18 24 0 0
BITMAP
FFFFC0
800040
C000C0
A00140
900040
800040
880440
840840
820040
800040
812040
80C040
804040
800040
812040
821040
800840
800040
880440
900240
800140
800040
C000C0
FFFFC0
ENDCHAR
STARTCHAR C0239
ENCODING 239
SWIDTH 562 0
DWIDTH 21 0
BBX 18 24 0 0
BITMAP
FFFFC0
800040
C000C0
A00140
900040
800040
880440
840840
820040
800040
812040
80C040
804040
800040
812040
821040
800840
800040
880440
900240
800140
800040
C000C0
FFFFC0
ENDCHAR
STARTCHAR C0240
ENCODING 240
SWIDTH 562 0
DWIDTH 21 0
BBX 18 24 0 0
BITMAP
FFFFC0
800040
C000C0
A00140
900040
800040
880440
840840
820040
800040
812040
80C040
804040
800040
812040
821040
800840
800040
880440
900240
800140
800040
C000C0
FFFFC0
ENDCHAR
STARTCHAR C0241
ENCODING 241
SWIDTH 562 0
DWIDTH 21 0
BBX 18 24 0 0
BITMAP
FFFFC0
800040
C000C0
A00140
900040
800040
880440
840840
820040
800040
812040
80C040
804040
800040
812040
821040
800840
800040
880440
900240
800140
800040
C000C0
FFFFC0
ENDCHAR
STARTCHAR C0242
ENCODING 242
SWIDTH 562 0
DWIDTH 21 0
BBX 18 24 0 0
BITMAP
FFFFC0
800040
C000C0
A00140
900040
800040
880440
840840
820040
800040
812040
80C040
804040
800040
812040
821040
800840
800040
880440
900240
800140
800040
C000C0
FFFFC0
ENDCHAR
STARTCHAR C0243
ENCODING 243
SWIDTH 562 0
DWIDTH 21 0
BBX 18 24 0 0
BITMAP
FFFFC0
800040
C000C0
A00140
900040
800040
880440
840840
820040
800040
812040
80C040
804040
800040
812040
821040
800840
800040
880440
900240
800140
800040
C000C0
FFFFC0
ENDCHAR
STARTCHAR C0244
ENCODING 244
SWIDTH 562 0
DWIDTH 21 0
BBX 18 24 0 0
BITMAP
FFFFC0
800040
C000C0
A00140
900040
800040
880440
840840
820040
800040
812040
80C040
804040
800040
812040
821040
800840
800040
880440
900240
800140
800040
C000C0
FFFFC0
ENDCHAR
STARTCHAR C0245
ENCODING 245
SWIDTH 562 0
DWIDTH 21 0
BBX 18 24 0 0
BITMAP
FFFFC0
800040
C000C0
A00140
900040
800040
880440
840840
820040
800040
812040
80C040
804040
800040
812040
821040
800840
800040
880440
900240
800140
800040
C000C0
FFFFC0
ENDCHAR
STARTCHAR C0246
ENCODING 246
SWIDTH 562 0
DWIDTH 21 0
BBX 18 24 0 0
BITMAP
FFFFC0
800040
C000C0
A00140
900040
800040
880440
840840
820040
800040
812040
80C040
804040
800040
812040
821040
800840
800040
880440
900240
800140
800040
C000C0
FFFFC0
ENDCHAR
STARTCHAR C0247
ENCODING 247
SWIDTH 535 0
DWIDTH 20 0
BBX 17 17 0 3
BITMAP
01C000
01C000
01C000
000000
000000
000000
000000
EFFB80
FFFF80
6DDB00
000000
000000
000000
008000
01C000
01C000
008000
ENDCHAR
STARTCHAR C0248
ENCODING 248
SWIDTH 562 0
DWIDTH 21 0
BBX 18 24 0 0
BITMAP
FFFFC0
800040
C000C0
A00140
900040
800040
880440
840840
820040
800040
812040
80C040
804040
800040
812040
821040
800840
800040
880440
900240
800140
800040
C000C0
FFFFC0
ENDCHAR
STARTCHAR C0249
ENCODING 249
SWIDTH 562 0
DWIDTH 21 0
BBX 18 24 0 0
BITMAP
FFFFC0
800040
C000C0
A00140
900040
800040
880440
840840
820040
800040
812040
80C040
804040
800040
812040
821040
800840
800040
880440
900240
800140
800040
C000C0
FFFFC0
ENDCHAR
STARTCHAR C0250
ENCODING 250
SWIDTH 562 0
DWIDTH 21 0
BBX 18 24 0 0
BITMAP
FFFFC0
800040
C000C0
A00140
900040
800040
880440
840840
820040
800040
812040
80C040
804040
800040
812040
821040
800840
800040
880440
900240
800140
800040
C000C0
FFFFC0
ENDCHAR
STARTCHAR C0251
ENCODING 251
SWIDTH 562 0
DWIDTH 21 0
BBX 18 24 0 0
BITMAP
FFFFC0
800040
C000C0
A00140
900040
800040
880440
840840
820040
800040
812040
80C040
804040
800040
812040
821040
800840
800040
880440
900240
800140
800040
C000C0
FFFFC0
ENDCHAR
STARTCHAR C0252
ENCODING 252
SWIDTH 562 0
DWIDTH 21 0
BBX 18 24 0 0
BITMAP
FFFFC0
800040
C000C0
A00140
900040
800040
880440
840840
820040
800040
812040
80C040
804040
800040
812040
821040
800840
800040
880440
900240
800140
800040
C000C0
FFFFC0
ENDCHAR
STARTCHAR C0253
ENCODING 253
SWIDTH 562 0
DWIDTH 21 0
BBX 18 24 0 0
BITMAP
FFFFC0
800040
C000C0
A00140
900040
800040
880440
840840
820040
800040
812040
80C040
804040
800040
812040
821040
800840
800040
880440
900240
800140
800040
C000C0
FFFFC0
ENDCHAR
STARTCHAR C0254
ENCODING 254
SWIDTH 562 0
DWIDTH 21 0
BBX 18 24 0 0
BITMAP
FFFFC0
800040
C000C0
A00140
900040
800040
880440
840840
820040
800040
812040
80C040
804040
800040
812040
821040
800840
800040
880440
900240
800140
800040
C000C0
FFFFC0
ENDCHAR
STARTCHAR C0255
ENCODING 255
SWIDTH 562 0
DWIDTH 21 0
BBX 18 24 0 0
BITMAP
FFFFC0
800040
C000C0
A00140
900040
800040
880440
840840
820040
800040
812040
80C040
804040
800040
812040
821040
800840
800040
880440
900240
800140
800040
C000C0
FFFFC0
ENDCHAR
ENDFONT
